<svg width="35" height="26" xmlns="http://www.w3.org/2000/svg" xmlns:xlink="http://www.w3.org/1999/xlink" preserveAspectRatio="xMidYMid meet">
 <defs>
  <path id="bhBdYFqzf" d="m35.42,5.56l0.43,0.05l0.42,0.08l0.39,0.09l0.37,0.12l0.36,0.14l0.32,0.16l0.31,0.18l0.28,0.21l0.27,0.22l0.24,0.24l0.22,0.27l0.2,0.28l0.18,0.31l0.16,0.33l0.13,0.35l0.12,0.37l0.09,0.39l0.08,0.41l0.05,0.44l0.03,0.45l0.01,0.47l0,0.12l0,0.11l-0.01,0.1l-0.04,0.2l-0.02,0.09l-0.02,0.09l-0.03,0.08l-0.07,0.15l-0.04,0.06l-0.05,0.06l-0.04,0.06l-0.06,0.05l-0.05,0.05l-0.06,0.03l-0.06,0.04l-0.07,0.03l-0.08,0.02l-0.07,0.02l-0.08,0.01l-0.08,0.01l-8.9,0l0,-0.07l-0.02,0l0,1.84l0.01,0.24l0.03,0.24l0.03,0.23l0.06,0.22l0.07,0.2l0.09,0.2l0.1,0.17l0.12,0.18l0.13,0.15l0.15,0.16l0.17,0.13l0.18,0.13l0.2,0.11l0.21,0.11l0.23,0.09l0.24,0.09l0.27,0.06l0.27,0.07l0.3,0.05l0.31,0.03l0.32,0.03l0.34,0.02l0.36,0.01l0.13,0l0.13,-0.01l0.13,0l0.12,-0.01l0.13,0l0.12,-0.01l0.12,-0.01l0.23,-0.02l0.11,-0.01l0.11,-0.02l0.21,-0.03l0.1,-0.01l0.1,-0.02l0.29,-0.06l0.09,-0.03l0.09,-0.02l0.08,-0.03l0.09,-0.03l0.08,-0.03l0.05,-0.01l0.05,-0.02l0.05,-0.02l0.05,-0.02l0.06,-0.03l0.06,-0.02l0.06,-0.03l0.06,-0.03l0.21,-0.11l0.08,-0.04l0.07,-0.05l0.17,-0.09l0.08,-0.05l0.09,-0.05l0.09,-0.06l0.19,-0.13l0.1,-0.06l0.1,-0.07l0.11,-0.07l0.12,-0.12l0.13,-0.1l0.06,-0.05l0.05,-0.04l0.06,-0.04l0.05,-0.05l0.09,-0.07l0.1,-0.06l0.04,-0.03l0.04,-0.02l0.04,-0.03l0.07,-0.03l0.03,-0.01l0.04,-0.01l0.02,-0.01l0.05,-0.01l0.09,0l0.1,0.01l0.05,0.01l0.05,0.01l0.05,0.01l0.04,0.02l0.07,0.04l0.04,0.03l0.06,0.06l0.03,0.03l0.03,0.04l0.04,0.08l0.01,0.05l0.02,0.05l0.01,0.06l0.01,0.05l0.01,0.05l0,0.07l0,0.07l0,0.06l-0.01,0.07l-0.01,0.06l-0.01,0.07l-0.06,0.2l-0.03,0.06l-0.04,0.07l-0.03,0.07l-0.04,0.07l-0.05,0.07l-0.05,0.06l-0.1,0.14l-0.13,0.13l-0.13,0.14l-0.16,0.14l-0.09,0.06l-0.08,0.08l-0.15,0.1l-0.15,0.11l-0.16,0.1l-0.16,0.1l-0.17,0.09l-0.18,0.09l-0.18,0.08l-0.19,0.07l-0.19,0.08l-0.21,0.07l-0.21,0.06l-0.21,0.06l-0.22,0.05l-0.23,0.05l-0.47,0.09l-0.25,0.03l-0.25,0.03l-0.26,0.02l-0.26,0.02l-0.27,0.01l-0.28,0.01l-0.28,0l-0.48,0l-0.47,-0.03l-0.45,-0.04l-0.42,-0.07l-0.41,-0.07l-0.38,-0.09l-0.36,-0.11l-0.34,-0.13l-0.31,-0.15l-0.3,-0.16l-0.27,-0.18l-0.26,-0.2l-0.22,-0.21l-0.21,-0.23l-0.19,-0.25l-0.16,-0.26l-0.14,-0.29l-0.13,-0.29l-0.1,-0.32l-0.07,-0.34l-0.06,-0.35l-0.03,-0.37l-0.01,-0.39l0,-4.71l0.01,-0.14l0.01,-0.12l0.01,-0.13l0.02,-0.13l0.02,-0.13l0.04,-0.13l0.03,-0.12l0.04,-0.12l0.04,-0.12l0.05,-0.12l0.05,-0.12l0.12,-0.23l0.06,-0.11l0.07,-0.12l0.08,-0.1l0.08,-0.11l0.08,-0.1l0.09,-0.11l0.19,-0.2l0.1,-0.1l0.13,-0.13l0.3,-0.24l0.15,-0.11l0.17,-0.11l0.17,-0.1l0.17,-0.09l0.18,-0.09l0.19,-0.08l0.19,-0.08l0.2,-0.07l0.21,-0.06l0.21,-0.06l0.22,-0.05l0.23,-0.05l0.22,-0.04l0.24,-0.03l0.24,-0.04l0.24,-0.02l0.25,-0.02l0.26,-0.01l0.26,-0.01l0.27,0l0.47,0.01l0.47,0.03zm-2.04,1.6l-0.41,0.07l-0.39,0.1l-0.38,0.13l-0.37,0.15l-0.35,0.18l-0.32,0.25l-0.27,0.26l-0.23,0.28l-0.19,0.3l-0.13,0.31l-0.08,0.32l-0.03,0.35l0,0.96l8.19,0l-0.09,-0.98l-0.25,-0.83l-0.43,-0.69l-0.6,-0.53l-0.76,-0.38l-0.95,-0.23l-1.11,-0.07l-0.43,0.01l-0.42,0.04z"/>
  <path id="bvatw1rZG" d="m107.21,5.56l0.43,0.05l0.42,0.08l0.39,0.09l0.37,0.12l0.35,0.14l0.33,0.16l0.31,0.18l0.29,0.21l0.26,0.22l0.24,0.24l0.22,0.27l0.21,0.28l0.17,0.31l0.16,0.33l0.14,0.35l0.11,0.37l0.1,0.39l0.07,0.41l0.05,0.44l0.03,0.45l0.01,0.47l0,0.12l-0.01,0.11l-0.01,0.1l-0.01,0.1l-0.02,0.1l-0.02,0.09l-0.03,0.09l-0.02,0.08l-0.03,0.07l-0.04,0.08l-0.04,0.06l-0.05,0.06l-0.05,0.06l-0.1,0.1l-0.13,0.07l-0.13,0.05l-0.08,0.02l-0.08,0.01l-0.08,0.01l-8.92,0.01l0,1.76l0.01,0.24l0.02,0.24l0.04,0.23l0.06,0.22l0.07,0.2l0.08,0.2l0.11,0.17l0.11,0.18l0.14,0.15l0.15,0.16l0.17,0.13l0.18,0.13l0.19,0.11l0.22,0.11l0.23,0.09l0.24,0.09l0.26,0.06l0.28,0.07l0.3,0.05l0.31,0.03l0.32,0.03l0.34,0.02l0.36,0.01l0.13,0l0.13,-0.01l0.13,0l0.25,-0.01l0.12,-0.01l0.12,-0.01l0.22,-0.02l0.12,-0.01l0.11,-0.02l0.31,-0.04l0.2,-0.04l0.19,-0.04l0.09,-0.03l0.09,-0.02l0.09,-0.03l0.08,-0.03l0.13,-0.04l0.04,-0.02l0.06,-0.02l0.05,-0.02l0.06,-0.03l0.05,-0.02l0.07,-0.03l0.06,-0.03l0.14,-0.07l0.07,-0.04l0.07,-0.04l0.08,-0.05l0.08,-0.04l0.08,-0.05l0.09,-0.05l0.09,-0.05l0.09,-0.06l0.09,-0.06l0.2,-0.13l0.1,-0.07l0.11,-0.07l0.06,-0.06l0.07,-0.06l0.05,-0.05l0.07,-0.05l0.05,-0.05l0.06,-0.04l0.11,-0.09l0.05,-0.03l0.05,-0.04l0.04,-0.03l0.05,-0.03l0.04,-0.03l0.04,-0.02l0.04,-0.03l0.07,-0.03l0.03,-0.01l0.06,-0.02l0.03,-0.01l0.02,0l0.09,0l0.05,0l0.06,0.01l0.09,0.02l0.05,0.01l0.04,0.02l0.04,0.02l0.04,0.02l0.03,0.03l0.06,0.06l0.03,0.03l0.03,0.04l0.04,0.08l0.01,0.05l0.02,0.05l0.02,0.11l0.01,0.05l0,0.07l0,0.13l-0.01,0.07l-0.01,0.06l-0.01,0.07l-0.02,0.07l-0.02,0.07l-0.02,0.06l-0.03,0.06l-0.04,0.07l-0.03,0.07l-0.09,0.14l-0.05,0.06l-0.05,0.07l-0.11,0.14l-0.21,0.2l-0.23,0.2l-0.09,0.08l-0.3,0.21l-0.15,0.1l-0.17,0.1l-0.17,0.09l-0.18,0.09l-0.18,0.08l-0.19,0.07l-0.2,0.08l-0.2,0.07l-0.21,0.06l-0.21,0.06l-0.22,0.05l-0.23,0.05l-0.23,0.04l-0.24,0.05l-0.25,0.03l-0.25,0.03l-0.26,0.02l-0.26,0.02l-0.55,0.02l-0.28,0l-0.49,0l-0.46,-0.03l-0.45,-0.04l-0.43,-0.07l-0.39,-0.07l-0.39,-0.09l-0.36,-0.11l-0.33,-0.13l-0.33,-0.15l-0.29,-0.16l-0.27,-0.18l-0.25,-0.2l-0.23,-0.21l-0.22,-0.23l-0.18,-0.25l-0.17,-0.26l-0.14,-0.29l-0.12,-0.29l-0.1,-0.32l-0.08,-0.34l-0.05,-0.35l-0.04,-0.37l-0.01,-0.39l0,-4.58l0.01,-0.13l0,-0.14l0.02,-0.12l0.01,-0.13l0.02,-0.13l0.05,-0.26l0.04,-0.12l0.04,-0.12l0.04,-0.12l0.05,-0.12l0.05,-0.12l0.11,-0.23l0.07,-0.11l0.07,-0.12l0.07,-0.1l0.09,-0.11l0.08,-0.1l0.09,-0.11l0.19,-0.2l0.1,-0.1l0.14,-0.13l0.14,-0.12l0.15,-0.12l0.15,-0.11l0.17,-0.11l0.17,-0.1l0.17,-0.09l0.19,-0.09l0.18,-0.08l0.19,-0.08l0.2,-0.07l0.42,-0.12l0.22,-0.05l0.22,-0.05l0.23,-0.04l0.23,-0.03l0.25,-0.04l0.24,-0.02l0.25,-0.02l0.26,-0.01l0.26,-0.01l0.27,0l0.48,0.01l0.46,0.03zm-2.04,1.6l-0.41,0.07l-0.39,0.1l-0.38,0.13l-0.37,0.15l-0.34,0.18l-0.34,0.25l-0.29,0.26l-0.23,0.28l-0.17,0.3l-0.13,0.31l-0.07,0.32l-0.03,0.35l0,0.96l8.19,0l-0.09,-0.98l-0.25,-0.83l-0.43,-0.69l-0.6,-0.53l-0.76,-0.38l-0.95,-0.23l-1.11,-0.07l-0.43,0.01l-0.42,0.04z"/>
  <path id="kheioiymm" d="m203.57,0.17c-0.12,0.12 -0.24,0.29 -0.24,0.45c0,0.29 0.34,0.69 0.97,1.33c2.63,2.53 3.95,5.62 3.94,9.35c-0.01,4.13 -1.4,7.45 -4.1,10.01c-0.57,0.51 -0.8,0.91 -0.8,1.25c0,0.17 0.12,0.34 0.23,0.51c0.11,0.12 0.34,0.23 0.51,0.23c0.62,0 1.5,-0.73 2.64,-2.17c2.22,-2.72 3.22,-5.73 3.28,-9.82c0.05,-4.1 -1.23,-6.88 -3.75,-9.75c-0.9,-1.03 -1.66,-1.56 -2.17,-1.56c-0.17,0 -0.35,0.06 -0.51,0.17z"/>
  <path id="ay2lFwqBt" d="m124.75,1.76c1.14,0.86 1.73,2.07 1.73,3.55c0,0.68 -0.29,1.02 -0.86,1.02c-0.39,0 -0.68,-0.34 -0.85,-1.02c-0.11,-0.57 -0.34,-1.08 -0.62,-1.62c-0.52,-0.9 -1.61,-1.32 -3.32,-1.32c-1.49,0 -2.52,0.34 -3.14,1.08c-0.57,0.68 -0.91,1.72 -0.91,3.26c0,0.59 0,5.35 0,5.95c0,1.55 0.34,2.63 0.97,3.31c0.68,0.74 1.72,1.13 3.2,1.13c2.23,0 3.54,-0.79 3.82,-2.34c0.12,-0.57 0.17,-0.86 0.17,-0.91c0.12,-0.34 0.35,-0.51 0.68,-0.51c0.57,0 0.86,0.34 0.86,1.02c0,1.44 -0.57,2.52 -1.78,3.38c-0.97,0.62 -2.18,0.96 -3.77,0.96c-1.84,0 -3.26,-0.4 -4.3,-1.25c-1.16,-0.8 -1.73,-2.16 -1.73,-3.94c0,0 0,0 0,0c0,0 0,0 0,0c0,-4.29 0,-6.68 0,-7.16c0,-3.77 1.95,-5.61 5.95,-5.61c1.61,0 2.86,0.34 3.9,1.02z"/>
  <path id="b29c6lMP53" d="m14.21,6.57c0,-0.56 0.34,-0.79 1.02,-0.79c0.33,0 2.98,0 3.32,0c0.57,0 0.85,0.51 0.85,1.44c1.02,-1.08 2.12,-1.73 3.26,-1.73c0.96,0 1.72,0.29 2.23,0.86c0.57,0.57 0.8,1.38 0.8,2.29c0,0.63 -0.29,0.97 -0.8,0.97c-0.34,0 -0.57,-0.23 -0.68,-0.63c-0.23,-0.8 -0.34,-1.19 -0.4,-1.25c-0.22,-0.39 -0.68,-0.62 -1.25,-0.62c-0.62,0 -1.25,0.23 -1.78,0.68c-0.34,0.23 -0.8,0.74 -1.38,1.49c0,0.52 0,3.07 0,7.67c1.85,0 2.88,0 3.08,0c0.68,0 1.03,0.29 1.03,0.8c0,0.57 -0.35,0.86 -1.03,0.86c-0.73,0 -6.59,0 -7.33,0c-0.68,0 -1.02,-0.29 -1.02,-0.8c0,-0.57 0.34,-0.8 1.02,-0.8c0.17,0 1.01,0 2.52,0c0,0 0,-0.03 0,-0.07c0,0 0.01,0 0.02,0c0,-5.74 0,-8.93 0,-9.57c-1.53,0 -2.35,0 -2.46,0c-0.68,0 -1.02,-0.28 -1.02,-0.8z"/>
  <path id="h1K5OvIsAQ" d="m96.68,0.04l0.06,0.02l0.06,0.03l0.05,0.03l0.06,0.04l0.04,0.04l0.09,0.09l0.03,0.06l0.04,0.06l0.03,0.07l0.02,0.07l0.04,0.16l0.04,0.18l0.01,0.2l0,0.1l0,16.84l0,0.08l-0.01,0.07l0,0.07l-0.04,0.13l-0.01,0.05l-0.03,0.06l-0.02,0.05l-0.06,0.09l-0.07,0.08l-0.05,0.03l-0.04,0.03l-0.05,0.03l-0.05,0.02l-0.05,0.02l-0.06,0.02l-0.12,0.02l-0.07,0.01l-0.11,0l-0.13,-0.02l-0.04,-0.01l-0.04,-0.02l-0.04,-0.01l-0.03,-0.02l-0.03,-0.01l-0.03,-0.03l-0.03,-0.02l-0.06,-0.05l-0.02,-0.03l-0.07,-0.12l-0.01,-0.04l-0.02,-0.05l-0.01,-0.04l-0.02,-0.05l0,-0.05l0,-0.08l0,-0.04l0,-0.04l-0.01,-0.04l0,-0.04l-0.01,-0.04l0,-0.04l0,-0.04l-0.01,-0.05l0,-0.04l0,-0.05l-0.01,-0.09l0,-0.06l-0.01,-0.04l0,-0.06l0,-0.11l-0.01,-0.06l0,-0.13l-0.13,0.09l-0.13,0.08l-0.13,0.09l-0.24,0.14l-0.11,0.08l-0.12,0.07l-0.21,0.12l-0.1,0.06l-0.09,0.06l-0.1,0.05l-0.25,0.14l-0.07,0.04l-0.07,0.04l-0.14,0.06l-0.12,0.05l-0.05,0.02l-0.09,0.04l-0.09,0.03l-0.09,0.02l-0.19,0.06l-0.3,0.06l-0.1,0.02l-0.21,0.03l-0.22,0.03l-0.11,0.02l-0.23,0.02l-0.12,0l-0.12,0.01l-0.11,0l-0.12,0.01l-0.46,0l-0.21,-0.01l-0.2,-0.01l-0.2,-0.02l-0.19,-0.01l-0.2,-0.03l-0.18,-0.02l-0.37,-0.07l-0.34,-0.08l-0.18,-0.05l-0.16,-0.05l-0.16,-0.05l-0.32,-0.12l-0.15,-0.07l-0.15,-0.06l-0.14,-0.08l-0.14,-0.08l-0.14,-0.08l-0.13,-0.08l-0.14,-0.1l-0.28,-0.22l-0.12,-0.11l-0.12,-0.13l-0.11,-0.12l-0.11,-0.13l-0.1,-0.14l-0.09,-0.14l-0.17,-0.29l-0.07,-0.15l-0.07,-0.16l-0.06,-0.16l-0.05,-0.16l-0.05,-0.18l-0.04,-0.18l-0.03,-0.17l-0.02,-0.19l-0.03,-0.19l-0.01,-0.19l0,-5.21l0.01,-0.19l0.03,-0.18l0.02,-0.18l0.03,-0.18l0.04,-0.17l0.04,-0.17l0.05,-0.16l0.06,-0.16l0.06,-0.15l0.08,-0.15l0.07,-0.15l0.09,-0.14l0.09,-0.14l0.1,-0.13l0.1,-0.13l0.1,-0.12l0.12,-0.12l0.12,-0.12l0.26,-0.22l0.14,-0.1l0.13,-0.08l0.13,-0.08l0.13,-0.08l0.15,-0.07l0.14,-0.07l0.14,-0.07l0.31,-0.12l0.15,-0.05l0.33,-0.1l0.33,-0.08l0.18,-0.03l0.18,-0.03l0.18,-0.03l0.18,-0.03l0.37,-0.03l0.19,-0.01l0.19,-0.01l0.45,0l0.25,0.02l0.12,0l0.13,0l0.12,0.02l0.12,0.01l0.11,0.01l0.11,0.01l0.22,0.04l0.11,0.01l0.21,0.04l0.1,0.02l0.09,0.02l0.28,0.08l0.09,0.03l0.09,0.04l0.08,0.03l0.09,0.03l0.08,0.04l0.09,0.03l0.09,0.04l0.1,0.05l0.17,0.09l0.29,0.16l0.09,0.05l0.29,0.19l0.2,0.14l0.09,0.07l0.1,0.08l0.1,0.08l0.2,0.16l0,-5.89l0.01,-0.1l0,-0.2l0.04,-0.18l0.01,-0.08l0.03,-0.08l0.02,-0.07l0.03,-0.07l0.03,-0.06l0.04,-0.06l0.04,-0.04l0.04,-0.05l0.04,-0.04l0.05,-0.04l0.05,-0.03l0.05,-0.03l0.06,-0.02l0.13,-0.03l0.06,-0.01l0.14,0l0.07,0.01l0.14,0.03zm-5.7,7.19l-0.26,0.03l-0.26,0.02l-0.25,0.05l-0.24,0.05l-0.23,0.05l-0.21,0.08l-0.21,0.08l-0.19,0.09l-0.18,0.1l-0.2,0.15l-0.2,0.16l-0.17,0.17l-0.15,0.17l-0.14,0.19l-0.11,0.2l-0.1,0.2l-0.08,0.23l-0.05,0.23l-0.04,0.23l-0.01,0.26l0,4.52l0.01,0.26l0.03,0.25l0.05,0.23l0.07,0.23l0.09,0.21l0.12,0.2l0.13,0.19l0.16,0.17l0.17,0.16l0.2,0.14l0.22,0.14l0.19,0.09l0.21,0.08l0.21,0.08l0.22,0.07l0.22,0.06l0.24,0.06l0.25,0.04l0.26,0.04l0.27,0.03l0.28,0.01l0.28,0.01l0.47,-0.01l0.22,-0.02l0.22,-0.02l0.43,-0.06l0.21,-0.04l0.2,-0.06l0.19,-0.06l0.19,-0.06l0.17,-0.07l0.14,-0.1l0.16,-0.11l0.15,-0.11l0.16,-0.12l0.17,-0.12l0.16,-0.13l0.18,-0.13l0.17,-0.15l0.18,-0.15l0.18,-0.16l0.18,-0.16l0,-6.59l-0.21,-0.16l-0.21,-0.14l-0.2,-0.14l-0.2,-0.13l-0.19,-0.12l-0.18,-0.11l-0.17,-0.11l-0.16,-0.09l-0.15,-0.07l-0.15,-0.07l-0.13,-0.06l-0.19,-0.07l-0.19,-0.06l-0.19,-0.06l-0.2,-0.05l-0.2,-0.04l-0.2,-0.04l-0.21,-0.03l-0.21,-0.02l-0.21,-0.01l-0.43,-0.01l-0.28,0l-0.27,0.01z"/>
  <path id="dda7d5c9Y" d="m195.66,12.04c-0.99,-0.25 3.06,-5.03 -4.13,-10.75c0,0 0.94,3 -3.81,9.69c-4.76,6.68 2.11,10.66 2.11,10.66c0,0 -3.22,-1.72 0.53,-7.84c0.67,-1.11 1.55,-2.11 2.64,-4.38c0,0 0.96,1.37 0.46,4.32c-0.75,4.47 3.27,3.19 3.33,3.25c1.41,1.65 -1.16,4.56 -1.32,4.65c-0.16,0.09 7.34,-4.5 2.01,-11.42c-0.36,0.36 -0.83,2.08 -1.82,1.82z"/>
  <path id="b1qEueV7Mq" d="m135.26,5.37l0.19,0.01l0.18,0.02l0.18,0.01l0.18,0.02l0.17,0.02l0.17,0.02l0.16,0.02l0.16,0.04l0.15,0.02l0.14,0.04l0.15,0.03l0.14,0.04l0.14,0.04l0.13,0.04l0.13,0.04l0.12,0.05l0.12,0.05l0.12,0.05l0.12,0.06l0.11,0.05l0.1,0.06l0.11,0.06l0.12,0.08l0.1,0.09l0.11,0.09l0.1,0.1l0.1,0.1l0.09,0.11l0.09,0.11l0.08,0.12l0.08,0.12l0.07,0.12l0.07,0.13l0.07,0.13l0.12,0.29l0.05,0.14l0.04,0.15l0.05,0.16l0.04,0.15l0.03,0.17l0.02,0.16l0.02,0.18l0.02,0.18l0.01,0.18l0.02,0.18l0,6.1l0,0.08l0,0.08l0.01,0.14l0.01,0.14l0.01,0.07l0.01,0.06l0.01,0.06l0.02,0.06l0.01,0.06l0.03,0.11l0.02,0.05l0.06,0.14l0.03,0.04l0.02,0.04l0.03,0.04l0.06,0.07l0.07,0.07l0.01,0.01l0.02,0.01l0,0.01l0.03,0l0.01,0.02l0.05,0.02l0.02,0.01l0.05,0.02l0.03,0.02l0.04,0.01l0.11,0.04l0.12,0.05l0.05,0.02l0.05,0.02l0.04,0.01l0.05,0.02l0.05,0.03l0.06,0.02l0.03,0.01l0.07,0.03l0.02,0.02l0.03,0.02l0.05,0.04l0.02,0.02l0.02,0.03l0.02,0.02l0.02,0.03l0.02,0.03l0.03,0.06l0.01,0.04l0.01,0.03l0.01,0.04l0.01,0.04l0,0.04l0.01,0.04l0.01,0.05l0,0.05l0.01,0.05l0,0.21l-0.02,0.05l0,0.04l-0.01,0.05l-0.01,0.04l-0.02,0.04l-0.01,0.04l-0.02,0.03l-0.03,0.04l-0.05,0.06l-0.02,0.03l-0.04,0.02l-0.11,0.06l-0.08,0.04l-0.05,0.01l-0.05,0.01l-0.1,0.01l-0.06,0l-0.11,0l-0.02,0l-0.01,0l-0.03,-0.01l-0.02,0l-0.02,0l-0.1,-0.02l-0.03,-0.02l-0.03,0l-0.03,-0.01l-0.03,-0.01l-0.11,-0.03l-0.04,-0.01l-0.04,-0.01l-0.04,-0.01l-0.05,-0.01l-0.04,-0.01l-0.05,-0.02l-0.15,-0.05l-0.06,-0.02l-0.07,-0.02l-0.07,-0.03l-0.12,-0.04l-0.06,-0.02l-0.06,-0.02l-0.05,-0.02l-0.05,-0.02l-0.05,-0.01l-0.04,-0.02l-0.05,-0.01l-0.04,-0.01l-0.04,-0.02l-0.03,-0.01l-0.07,-0.02l-0.07,-0.03l-0.03,-0.01l-0.01,-0.01l-0.02,-0.01l-0.03,0l-0.04,0l-0.03,-0.02l-0.03,-0.01l-0.04,-0.01l-0.02,-0.02l-0.03,-0.02l-0.03,-0.02l-0.03,-0.03l-0.02,-0.03l-0.03,-0.03l-0.02,-0.03l-0.02,-0.04l-0.03,-0.04l-0.02,-0.04l-0.01,-0.04l-0.03,-0.04l-0.02,-0.05l-0.03,-0.09l-0.06,-0.21l-0.02,-0.06l-0.23,0.16l-0.22,0.15l-0.1,0.07l-0.2,0.12l-0.1,0.07l-0.17,0.11l-0.17,0.11l-0.08,0.04l-0.07,0.05l-0.14,0.08l-0.07,0.04l-0.06,0.04l-0.16,0.08l-0.05,0.02l-0.09,0.04l-0.04,0.01l-0.06,0.04l-0.07,0.02l-0.15,0.05l-0.24,0.06l-0.08,0.02l-0.08,0.02l-0.08,0.01l-0.18,0.03l-0.09,0.01l-0.09,0.02l-0.28,0.03l-0.1,0.01l-0.1,0.01l-0.1,0l-0.11,0.01l-0.1,0l-0.49,0l-0.16,0l-0.16,-0.01l-0.31,-0.02l-0.3,-0.03l-0.15,-0.02l-0.15,-0.03l-0.28,-0.05l-0.27,-0.06l-0.14,-0.04l-0.13,-0.04l-0.12,-0.04l-0.13,-0.05l-0.24,-0.09l-0.12,-0.06l-0.11,-0.05l-0.11,-0.06l-0.11,-0.07l-0.11,-0.06l-0.1,-0.07l-0.12,-0.08l-0.12,-0.08l-0.22,-0.19l-0.1,-0.1l-0.09,-0.1l-0.1,-0.1l-0.08,-0.11l-0.08,-0.11l-0.08,-0.11l-0.07,-0.12l-0.07,-0.12l-0.06,-0.12l-0.06,-0.13l-0.05,-0.12l-0.05,-0.13l-0.08,-0.27l-0.03,-0.14l-0.03,-0.14l-0.04,-0.3l-0.02,-0.3l0,-0.32l0.01,-0.15l0.01,-0.16l0.02,-0.14l0.05,-0.3l0.07,-0.28l0.05,-0.14l0.11,-0.26l0.06,-0.13l0.06,-0.13l0.15,-0.24l0.08,-0.11l0.08,-0.11l0.09,-0.11l0.1,-0.11l0.1,-0.1l0.1,-0.1l0.11,-0.09l0.23,-0.18l0.13,-0.08l0.22,-0.16l0.11,-0.08l0.24,-0.13l0.26,-0.13l0.13,-0.05l0.26,-0.11l0.14,-0.05l0.28,-0.08l0.14,-0.04l0.15,-0.03l0.14,-0.04l0.15,-0.02l0.15,-0.03l0.16,-0.02l0.15,-0.01l0.16,-0.02l0.16,-0.01l0.16,-0.01l0.16,-0.01l0.3,0l0.13,0.01l0.14,0l0.29,0.02l0.14,0.02l0.15,0.02l0.14,0.02l0.16,0.02l0.14,0.02l0.15,0.04l0.16,0.02l0.15,0.03l0.32,0.08l0.49,0.12l0.16,0.05l0.17,0.05l0.17,0.05l0.17,0.05l0.18,0.06l0.18,0.06l0.17,0.06l0,-2.01l0,-0.12l-0.01,-0.11l-0.01,-0.1l-0.01,-0.12l-0.02,-0.09l-0.02,-0.11l-0.04,-0.1l-0.03,-0.1l-0.03,-0.09l-0.05,-0.09l-0.04,-0.09l-0.11,-0.16l-0.06,-0.09l-0.06,-0.07l-0.07,-0.08l-0.15,-0.14l-0.08,-0.07l-0.18,-0.12l-0.1,-0.06l-0.1,-0.05l-0.1,-0.05l-0.11,-0.06l-0.07,-0.03l-0.16,-0.06l-0.34,-0.11l-0.26,-0.06l-0.1,-0.02l-0.09,-0.01l-0.1,-0.02l-0.09,-0.01l-0.1,-0.01l-0.2,-0.02l-0.1,-0.02l-0.1,0l-0.11,-0.01l-0.1,-0.01l-0.11,0l-0.1,0l-0.47,0l-0.25,0.01l-0.24,0.01l-0.23,0.02l-0.21,0.03l-0.21,0.03l-0.2,0.03l-0.19,0.04l-0.17,0.05l-0.17,0.06l-0.16,0.05l-0.15,0.07l-0.14,0.07l-0.13,0.07l-0.12,0.09l-0.12,0.08l-0.1,0.1l-0.09,0.1l-0.09,0.11l-0.08,0.11l-0.06,0.11l-0.06,0.13l-0.05,0.13l-0.04,0.14l-0.03,0.14l-0.01,0.07l-0.02,0.06l-0.02,0.11l-0.02,0.11l-0.02,0.09l-0.01,0.05l-0.01,0.04l-0.01,0.03l0,0.04l-0.01,0.03l-0.01,0.03l-0.01,0.06l-0.01,0.04l0,0.02l-0.01,0.02l0,0.01l0,0.01l0,0.03l-0.02,0.03l-0.03,0.07l-0.01,0.02l-0.05,0.06l-0.01,0.02l-0.03,0.02l-0.02,0.02l-0.03,0.03l-0.02,0.01l-0.02,0.02l-0.03,0.01l-0.03,0.02l-0.03,0.01l-0.03,0.01l-0.03,0.01l-0.04,0.01l-0.03,0.01l-0.03,0.01l-0.04,0l-0.04,0l-0.03,0.01l-0.15,0l-0.06,-0.01l-0.13,-0.02l-0.06,-0.01l-0.15,-0.06l-0.05,-0.03l-0.05,-0.03l-0.04,-0.04l-0.04,-0.03l-0.08,-0.08l-0.03,-0.05l-0.05,-0.09l-0.03,-0.06l-0.01,-0.06l-0.02,-0.06l-0.02,-0.06l-0.01,-0.06l0,-0.07l-0.01,-0.08l0,-0.17l0.01,-0.1l0,-0.1l0.02,-0.1l0.01,-0.1l0.04,-0.2l0.05,-0.2l0.03,-0.1l0.03,-0.09l0.04,-0.1l0.04,-0.1l0.05,-0.1l0.09,-0.19l0.18,-0.28l0.06,-0.09l0.07,-0.09l0.22,-0.27l0.08,-0.09l0.1,-0.11l0.22,-0.2l0.12,-0.09l0.26,-0.18l0.14,-0.08l0.15,-0.08l0.16,-0.08l0.15,-0.06l0.17,-0.07l0.18,-0.06l0.18,-0.05l0.19,-0.05l0.19,-0.05l0.2,-0.04l0.21,-0.04l0.21,-0.04l0.44,-0.05l0.23,-0.02l0.23,-0.02l0.24,-0.01l0.25,0l0.25,-0.01l0.2,0l0.2,0.01l0.2,0zm-2.41,7.31l-0.68,0.24l-0.54,0.35l-0.38,0.44l-0.23,0.54l-0.07,0.64l0.02,0.34l0.06,0.31l0.11,0.3l0.15,0.27l0.2,0.25l0.25,0.2l0.29,0.17l0.25,0.13l0.28,0.12l0.3,0.09l0.32,0.08l0.34,0.05l0.36,0.03l0.38,0.01l0.34,-0.01l0.32,-0.02l0.32,-0.04l0.31,-0.07l0.3,-0.07l0.3,-0.11l0.29,-0.13l0.2,-0.12l0.22,-0.15l0.25,-0.16l0.26,-0.18l0.28,-0.21l0.3,-0.22l0.31,-0.23l0,-2.41l-0.54,-0.16l-0.53,-0.14l-0.53,-0.11l-0.52,-0.09l-0.51,-0.07l-0.49,-0.04l-0.48,-0.01l-0.98,0.05l-0.83,0.14z"/>
  <path id="m4GdFVRLeZ" d="m0.97,5.8c0.12,0 0.73,0 1.84,0c0,-0.97 0,-1.5 0,-1.61c0,-2.8 1.44,-4.19 4.24,-4.19c1.14,0 2.12,0.23 2.86,0.63c0.96,0.57 1.5,1.5 1.5,2.58c0,0.73 -0.29,1.02 -0.8,1.02c-0.34,0 -0.68,-0.23 -0.86,-0.63c-0.22,-0.73 -0.45,-1.13 -0.56,-1.32c-0.34,-0.4 -1.03,-0.63 -2.01,-0.63c-1.72,0 -2.57,0.85 -2.57,2.58c0,0.1 0,0.62 0,1.55c1.99,0 3.09,0 3.31,0c0.74,0 1.08,0.29 1.08,0.79c0,0.57 -0.34,0.8 -1.08,0.8c-0.22,0 -1.32,0 -3.31,0c0,6.29 0,9.78 0,10.48c0,0.62 -0.29,0.96 -0.8,0.96c-0.57,0 -0.8,-0.34 -0.8,-0.96c0,-0.7 0,-4.17 0,-10.46c0,0 -1.94,0 -2.04,0c-0.63,0 -0.97,-0.28 -0.97,-0.79c0,-0.58 0.34,-0.8 0.97,-0.8z"/>
  <path id="c37mAI27J" d="m78.8,5.55l0.61,0.08l0.56,0.12l0.52,0.15l0.48,0.18l0.43,0.22l0.38,0.25l0.34,0.29l0.29,0.32l0.25,0.35l0.21,0.39l0.16,0.42l0.11,0.45l0.07,0.49l0.02,0.51l0,4.71l-0.02,0.52l-0.07,0.48l-0.11,0.46l-0.15,0.42l-0.2,0.38l-0.24,0.35l-0.29,0.32l-0.33,0.29l-0.38,0.25l-0.42,0.22l-0.47,0.19l-0.51,0.15l-0.55,0.11l-0.6,0.09l-0.64,0.05l-0.68,0.02l-0.72,-0.01l-0.68,-0.04l-0.63,-0.08l-0.58,-0.11l-0.53,-0.15l-0.48,-0.18l-0.43,-0.22l-0.39,-0.25l-0.34,-0.29l-0.3,-0.32l-0.25,-0.36l-0.21,-0.38l-0.15,-0.43l-0.11,-0.46l-0.07,-0.49l-0.02,-0.53l0,-4.71l0.02,-0.51l0.07,-0.49l0.11,-0.45l0.16,-0.42l0.2,-0.39l0.26,-0.35l0.29,-0.32l0.34,-0.29l0.39,-0.25l0.43,-0.22l0.47,-0.18l0.52,-0.15l0.56,-0.12l0.61,-0.08l0.65,-0.06l0.7,-0.01l0.69,0.01l0.65,0.06zm-2.67,1.61l-0.53,0.1l-0.47,0.13l-0.42,0.17l-0.37,0.21l-0.31,0.24l-0.25,0.28l-0.2,0.32l-0.14,0.35l-0.09,0.39l-0.02,0.42l0,4.71l0.02,0.42l0.09,0.39l0.14,0.36l0.21,0.31l0.26,0.28l0.31,0.24l0.37,0.2l0.43,0.17l0.49,0.12l0.55,0.09l0.6,0.04l0.66,0l0.64,0l0.59,-0.04l0.54,-0.08l0.48,-0.12l0.42,-0.16l0.37,-0.2l0.31,-0.23l0.26,-0.28l0.2,-0.32l0.14,-0.36l0.09,-0.4l0.03,-0.43l0,-4.71l-0.03,-0.42l-0.09,-0.39l-0.14,-0.35l-0.2,-0.32l-0.27,-0.28l-0.31,-0.24l-0.38,-0.21l-0.44,-0.17l-0.49,-0.13l-0.55,-0.1l-0.62,-0.05l-0.67,-0.02l-0.63,0.02l-0.58,0.05z"/>
  <path id="d6YqIDq2lJ" d="m181.88,0.18c0.12,0.11 0.23,0.28 0.23,0.45c0,0.29 -0.34,0.68 -0.97,1.32c-2.62,2.53 -3.94,5.62 -3.93,9.36c0.01,4.12 1.4,7.44 4.1,10.01c0.56,0.5 0.8,0.9 0.8,1.24c0,0.17 -0.12,0.35 -0.23,0.51c-0.11,0.12 -0.34,0.24 -0.51,0.24c-0.63,0 -1.5,-0.74 -2.64,-2.18c-2.22,-2.72 -3.22,-5.72 -3.28,-9.82c-0.05,-4.1 1.23,-6.88 3.75,-9.75c0.9,-1.02 1.66,-1.56 2.17,-1.56c0.17,0 0.34,0.06 0.51,0.18z"/>
  <path id="cew0A9K5b" d="m149.59,6.94c0.45,-0.57 0.85,-0.92 1.25,-1.08c0.39,-0.23 0.96,-0.34 1.6,-0.34c1.96,0 2.98,0.96 2.98,2.85c0,0.93 0,8.36 0,9.29c0,0.79 -0.28,1.14 -0.85,1.14c-0.57,0 -0.8,-0.35 -0.8,-1.14c0,-0.87 0,-7.83 0,-8.7c0,-1.19 -0.51,-1.83 -1.49,-1.83c-0.74,0 -1.5,0.45 -2.12,1.32c0,0.93 0,8.36 0,9.29c0,0.79 -0.29,1.13 -0.8,1.13c-0.51,0 -0.8,-0.34 -0.8,-1.13c0,-0.86 0,-7.73 0,-8.59c0,-1.33 -0.56,-1.95 -1.61,-1.95c-0.68,0 -1.32,0.46 -2,1.33c0,0.92 0,8.3 0,9.22c0,0.8 -0.29,1.14 -0.86,1.14c-0.57,0 -0.79,-0.34 -0.79,-1.14c0,-1.14 0,-10.25 0,-11.38c0,-0.57 0.22,-0.8 0.68,-0.8c0.23,0 0.45,0.17 0.57,0.51c0.11,0.15 0.17,0.44 0.17,0.78c0,0 0,0 0,0c0,0 0,0 0,0c0.53,-0.57 0.87,-0.91 1.02,-1.03c0.34,-0.22 0.8,-0.34 1.44,-0.34c0.91,0 1.72,0.46 2.41,1.45z"/>
  <path id="cFiSxUJuO" d="m49.79,5.56l0.44,0.05l0.41,0.08l0.4,0.09l0.37,0.12l0.35,0.14l0.33,0.16l0.31,0.18l0.28,0.21l0.27,0.22l0.24,0.24l0.22,0.27l0.2,0.28l0.18,0.31l0.16,0.33l0.13,0.35l0.11,0.37l0.1,0.39l0.07,0.41l0.06,0.44l0.03,0.45l0.01,0.47l0,0.12l-0.01,0.11l-0.01,0.1l-0.03,0.2l-0.02,0.09l-0.03,0.09l-0.02,0.08l-0.08,0.15l-0.03,0.06l-0.05,0.06l-0.05,0.06l-0.05,0.05l-0.06,0.05l-0.05,0.03l-0.07,0.04l-0.07,0.03l-0.07,0.02l-0.07,0.02l-0.08,0.01l-0.09,0.01l-8.89,0l0,-0.07l-0.02,0l0,1.84l0.01,0.24l0.02,0.24l0.04,0.23l0.06,0.22l0.06,0.2l0.09,0.2l0.1,0.17l0.12,0.18l0.14,0.15l0.15,0.16l0.16,0.13l0.18,0.13l0.2,0.11l0.22,0.11l0.22,0.09l0.25,0.09l0.26,0.06l0.28,0.07l0.29,0.05l0.31,0.03l0.33,0.03l0.34,0.02l0.36,0.01l0.13,0l0.13,-0.01l0.12,0l0.13,-0.01l0.12,0l0.12,-0.01l0.12,-0.01l0.23,-0.02l0.11,-0.01l0.12,-0.02l0.31,-0.04l0.1,-0.02l0.09,-0.02l0.1,-0.02l0.09,-0.02l0.1,-0.03l0.09,-0.02l0.08,-0.03l0.08,-0.03l0.09,-0.03l0.04,-0.01l0.05,-0.02l0.06,-0.02l0.05,-0.02l0.05,-0.03l0.06,-0.02l0.06,-0.03l0.07,-0.03l0.14,-0.07l0.07,-0.04l0.07,-0.04l0.08,-0.05l0.08,-0.04l0.08,-0.05l0.09,-0.05l0.09,-0.05l0.08,-0.06l0.19,-0.13l0.1,-0.06l0.11,-0.07l0.1,-0.07l0.13,-0.12l0.13,-0.1l0.05,-0.05l0.06,-0.04l0.05,-0.04l0.06,-0.05l0.09,-0.07l0.09,-0.06l0.05,-0.03l0.04,-0.02l0.04,-0.03l0.07,-0.03l0.03,-0.01l0.03,-0.01l0.03,-0.01l0.05,-0.01l0.09,0l0.1,0.01l0.05,0.01l0.05,0.01l0.05,0.01l0.04,0.02l0.07,0.04l0.04,0.03l0.06,0.06l0.03,0.03l0.03,0.04l0.04,0.08l0.01,0.05l0.01,0.05l0.02,0.06l0,0.05l0.01,0.05l0,0.07l0.01,0.07l-0.01,0.06l0,0.07l-0.01,0.06l-0.01,0.07l-0.07,0.2l-0.03,0.06l-0.03,0.07l-0.03,0.07l-0.09,0.14l-0.05,0.06l-0.11,0.14l-0.12,0.13l-0.14,0.14l-0.16,0.14l-0.08,0.06l-0.08,0.08l-0.15,0.1l-0.15,0.11l-0.16,0.1l-0.16,0.1l-0.17,0.09l-0.18,0.09l-0.18,0.08l-0.19,0.07l-0.2,0.08l-0.2,0.07l-0.21,0.06l-0.22,0.06l-0.22,0.05l-0.22,0.05l-0.47,0.09l-0.25,0.03l-0.25,0.03l-0.26,0.02l-0.26,0.02l-0.55,0.02l-0.28,0l-0.49,0l-0.47,-0.03l-0.44,-0.04l-0.43,-0.07l-0.4,-0.07l-0.38,-0.09l-0.36,-0.11l-0.34,-0.13l-0.32,-0.15l-0.29,-0.16l-0.27,-0.18l-0.26,-0.2l-0.23,-0.21l-0.21,-0.23l-0.19,-0.25l-0.16,-0.26l-0.14,-0.29l-0.12,-0.29l-0.1,-0.32l-0.08,-0.34l-0.06,-0.35l-0.03,-0.37l-0.01,-0.39l0,-4.71l0.01,-0.14l0.01,-0.12l0.02,-0.13l0.02,-0.13l0.02,-0.13l0.03,-0.13l0.03,-0.12l0.05,-0.12l0.04,-0.12l0.04,-0.12l0.06,-0.12l0.11,-0.23l0.07,-0.11l0.07,-0.12l0.07,-0.1l0.08,-0.11l0.09,-0.1l0.09,-0.11l0.18,-0.2l0.1,-0.1l0.14,-0.13l0.29,-0.24l0.16,-0.11l0.16,-0.11l0.17,-0.1l0.18,-0.09l0.18,-0.09l0.19,-0.08l0.19,-0.08l0.2,-0.07l0.21,-0.06l0.21,-0.06l0.22,-0.05l0.22,-0.05l0.23,-0.04l0.23,-0.03l0.24,-0.04l0.24,-0.02l0.26,-0.02l0.26,-0.01l0.26,-0.01l0.26,0l0.48,0.01l0.46,0.03zm-2.04,1.6l-0.4,0.07l-0.4,0.1l-0.38,0.13l-0.36,0.15l-0.35,0.18l-0.34,0.25l-0.28,0.26l-0.23,0.28l-0.17,0.3l-0.13,0.31l-0.08,0.32l-0.02,0.35l0,0.96l8.18,0l-0.08,-0.98l-0.26,-0.83l-0.42,-0.69l-0.6,-0.53l-0.77,-0.38l-0.94,-0.23l-1.11,-0.07l-0.44,0.01l-0.42,0.04z"/>
  <path id="a6aJpcbBg" d="m67.34,1.76c1.14,0.86 1.73,2.07 1.73,3.55c0,0.68 -0.29,1.02 -0.86,1.02c-0.4,0 -0.68,-0.34 -0.85,-1.02c-0.12,-0.57 -0.34,-1.08 -0.62,-1.62c-0.52,-0.9 -1.61,-1.32 -3.32,-1.32c-1.5,0 -2.52,0.34 -3.14,1.08c-0.57,0.68 -0.92,1.72 -0.92,3.26c0,0.59 0,5.35 0,5.95c0,1.55 0.35,2.63 0.97,3.31c0.68,0.74 1.73,1.13 3.21,1.13c2.23,0 3.54,-0.79 3.82,-2.34c0.11,-0.57 0.17,-0.86 0.17,-0.91c0.11,-0.34 0.34,-0.51 0.68,-0.51c0.57,0 0.86,0.34 0.86,1.02c0,1.44 -0.58,2.52 -1.79,3.38c-0.96,0.62 -2.18,0.96 -3.77,0.96c-1.83,0 -3.25,-0.4 -4.3,-1.25c-1.21,-0.8 -1.72,-2.16 -1.72,-3.94c0,0 0,0 0,0c0,0 0,0 0,0c0,-4.29 0,-6.68 0,-7.16c0,-3.77 1.93,-5.61 5.95,-5.61c1.61,0 2.86,0.34 3.9,1.02z"/>
  <path id="g1eXYp6hy3" d="m158.79,5.43l0.03,0.01l0.06,0.02l0.03,0.01l0.03,0.02l0.03,0.01l0.03,0.03l0.03,0.02l0.03,0.02l0.03,0.03l0.03,0.02l0.05,0.07l0.05,0.07l0.03,0.04l0.03,0.04l0.02,0.05l0.02,0.04l0.01,0.04l0.02,0.09l0.01,0.04l0.02,0.04l0.01,0.05l0.01,0.04l0.02,0.04l0.01,0.05l0.05,0.12l0.02,0.05l0.03,0.08l0.01,0.05l0.01,0.04l0.02,0.08l0.02,0.04l0.01,0.04l0.01,0.04l0.25,-0.12l0.49,-0.23l0.24,-0.11l0.23,-0.1l0.23,-0.09l0.23,-0.09l0.22,-0.08l0.21,-0.08l0.21,-0.07l0.2,-0.06l0.2,-0.07l0.2,-0.05l0.38,-0.09l0.19,-0.04l0.17,-0.03l0.17,-0.03l0.17,-0.02l0.16,-0.01l0.16,-0.01l0.16,0l0.46,0.01l0.44,0.03l0.43,0.04l0.39,0.06l0.38,0.09l0.36,0.1l0.33,0.12l0.31,0.14l0.29,0.15l0.27,0.17l0.25,0.2l0.22,0.2l0.21,0.23l0.18,0.24l0.16,0.26l0.14,0.28l0.12,0.3l0.09,0.31l0.08,0.33l0.06,0.35l0.03,0.36l0.01,0.38l0,4.76l-0.01,0.19l-0.01,0.18l-0.01,0.17l-0.03,0.18l-0.02,0.17l-0.04,0.16l-0.04,0.16l-0.05,0.16l-0.05,0.15l-0.06,0.15l-0.06,0.15l-0.08,0.14l-0.07,0.14l-0.09,0.14l-0.09,0.13l-0.09,0.12l-0.1,0.13l-0.11,0.12l-0.12,0.12l-0.11,0.12l-0.13,0.11l-0.13,0.11l-0.12,0.09l-0.12,0.09l-0.13,0.08l-0.13,0.08l-0.14,0.07l-0.13,0.07l-0.15,0.07l-0.15,0.06l-0.15,0.05l-0.32,0.11l-0.33,0.08l-0.17,0.04l-0.18,0.03l-0.18,0.03l-0.36,0.04l-0.19,0.02l-0.2,0.01l-0.19,0l-0.44,0l-0.24,-0.01l-0.24,-0.02l-0.23,-0.01l-0.23,-0.03l-0.23,-0.03l-0.22,-0.04l-0.44,-0.09l-0.21,-0.06l-0.21,-0.05l-0.21,-0.07l-0.21,-0.08l-0.2,-0.08l-0.2,-0.08l-0.2,-0.1l-0.19,-0.1l-0.2,-0.1l-0.19,-0.11l-0.19,-0.12l-0.18,-0.13l-0.18,-0.13l0,5.49l-0.01,0.1l-0.01,0.1l-0.01,0.09l-0.02,0.09l-0.02,0.08l-0.02,0.08l-0.02,0.08l-0.03,0.07l-0.04,0.07l-0.03,0.05l-0.04,0.06l-0.04,0.05l-0.04,0.05l-0.05,0.04l-0.05,0.04l-0.06,0.02l-0.05,0.03l-0.06,0.02l-0.06,0.01l-0.07,0.01l-0.14,0l-0.06,0l-0.07,-0.02l-0.05,-0.02l-0.06,-0.02l-0.11,-0.06l-0.04,-0.04l-0.05,-0.04l-0.04,-0.05l-0.04,-0.05l-0.04,-0.06l-0.03,-0.06l-0.02,-0.07l-0.03,-0.08l-0.02,-0.08l-0.02,-0.08l-0.02,-0.1l-0.01,-0.09l-0.01,-0.11l0,-0.1l0,-16.31l0,-0.1l0.01,-0.09l0.01,-0.1l0.01,-0.09l0.01,-0.08l0.02,-0.08l0.03,-0.07l0.02,-0.08l0.05,-0.12l0.04,-0.06l0.03,-0.05l0.04,-0.05l0.04,-0.03l0.05,-0.04l0.04,-0.03l0.05,-0.03l0.11,-0.03l0.06,-0.01l0.09,0l0.03,0.01l0.03,0zm4.49,1.74l-0.23,0.02l-0.23,0.02l-0.22,0.03l-0.21,0.03l-0.21,0.05l-0.19,0.05l-0.19,0.05l-0.18,0.07l-0.18,0.07l-0.15,0.07l-0.16,0.08l-0.15,0.1l-0.17,0.11l-0.16,0.12l-0.17,0.14l-0.17,0.15l-0.18,0.16l-0.18,0.18l-0.2,0.19l-0.2,0.2l0,6.54l0.06,0l0,-0.03l0.47,0.28l0.45,0.25l0.45,0.24l0.42,0.19l0.41,0.18l0.4,0.14l0.38,0.12l0.36,0.09l0.35,0.07l0.34,0.04l0.32,0.02l0.28,-0.01l0.27,-0.01l0.26,-0.03l0.24,-0.03l0.25,-0.04l0.23,-0.05l0.22,-0.06l0.21,-0.07l0.2,-0.08l0.19,-0.09l0.17,-0.1l0.21,-0.13l0.18,-0.15l0.17,-0.15l0.14,-0.16l0.12,-0.17l0.1,-0.19l0.08,-0.19l0.06,-0.2l0.05,-0.22l0.02,-0.22l0.01,-0.23l0,-4.75l-0.01,-0.28l-0.03,-0.26l-0.05,-0.23l-0.07,-0.23l-0.09,-0.21l-0.11,-0.2l-0.14,-0.18l-0.15,-0.17l-0.18,-0.15l-0.2,-0.15l-0.22,-0.12l-0.18,-0.09l-0.19,-0.09l-0.2,-0.06l-0.21,-0.07l-0.22,-0.05l-0.24,-0.05l-0.24,-0.04l-0.26,-0.03l-0.27,-0.02l-0.28,-0.01l-0.29,-0.01l-0.25,0.01l-0.26,0z"/>
 </defs>
 <g>
  <title>background</title>
  <rect fill="none" id="canvas_background" height="28" width="37" y="-1" x="-1"/>
 </g>
 <g>
  <title>Layer 1</title>
  <g stroke="null" id="svg_1">
   <g stroke="null" id="svg_12">
    <use transform="matrix(0.9984127283096313,0,0,1,0.0003968141145893611,0) " stroke="null" stroke-width="0" x="-175.28205" y="1.5" id="svg_13" fill="#000000" xlink:href="#kheioiymm"/>
    <g stroke="null" id="svg_14">
     <use fill="#000000" transform="matrix(0.9984127283096313,0,0,1,0.0003968141145893611,0) " stroke="#000000" x="-175.28205" y="1.5" id="svg_15" stroke-opacity="0" stroke-width="0" fill-opacity="0" xlink:href="#kheioiymm"/>
    </g>
   </g>
   <g stroke="null" id="svg_28">
    <use transform="matrix(0.9984127283096313,0,0,1,0.0003968141145893611,0) " stroke="null" stroke-width="0" x="-175.28205" y="1.5" id="svg_29" fill="#000000" xlink:href="#dda7d5c9Y"/>
    <g stroke="null" id="svg_30">
     <use fill="#000000" transform="matrix(0.9984127283096313,0,0,1,0.0003968141145893611,0) " stroke="#000000" x="-175.28205" y="1.5" id="svg_31" stroke-opacity="0" stroke-width="0" fill-opacity="0" xlink:href="#dda7d5c9Y"/>
    </g>
   </g>
   <g stroke="null" id="svg_44">
    <use transform="matrix(0.9984127283096313,0,0,1,0.0003968141145893611,0) " stroke="null" stroke-width="0" x="-175.28205" y="1.5" id="svg_45" fill="#000000" xlink:href="#d6YqIDq2lJ"/>
    <g stroke="null" id="svg_46">
     <use fill="#000000" transform="matrix(0.9984127283096313,0,0,1,0.0003968141145893611,0) " stroke="#000000" x="-175.28205" y="1.5" id="svg_47" stroke-opacity="0" stroke-width="0" fill-opacity="0" xlink:href="#d6YqIDq2lJ"/>
    </g>
   </g>
  </g>
 </g>
</svg>